<?xml version="1.0" encoding="UTF-8"?>
<svg version="1.1" xmlns="http://www.w3.org/2000/svg" width="499" height="499">
<path d="M0,0 L7,0 L7,1 L9,1 L9,2 L12,2 L12,3 L14,3 L14,4 L15,4 L15,5 L16,5 L16,6 L19,6 L19,7 L21,7 L21,8 L22,8 L22,9 L24,9 L24,10 L25,10 L25,11 L28,11 L28,12 L29,12 L29,13 L31,13 L31,14 L32,14 L32,15 L34,15 L34,16 L36,16 L36,17 L38,17 L38,18 L39,18 L39,19 L41,19 L41,20 L44,20 L44,21 L45,21 L45,22 L47,22 L47,23 L49,23 L49,24 L51,24 L51,25 L52,25 L52,26 L53,26 L53,27 L55,27 L55,28 L57,28 L57,29 L59,29 L59,30 L61,30 L61,31 L62,31 L62,32 L64,32 L64,33 L66,33 L66,34 L68,34 L68,35 L70,35 L70,36 L71,36 L71,37 L73,37 L73,38 L75,38 L75,39 L77,39 L77,41 L81,41 L81,43 L83,43 L83,44 L85,44 L85,45 L87,45 L87,46 L89,46 L89,47 L90,47 L90,48 L93,48 L93,49 L94,49 L94,50 L96,50 L96,51 L98,51 L98,52 L99,52 L99,53 L101,53 L101,54 L102,54 L102,55 L104,55 L104,56 L106,56 L106,57 L107,57 L107,58 L110,58 L110,59 L112,59 L112,60 L113,60 L113,61 L116,61 L116,62 L117,62 L117,63 L119,63 L119,64 L120,64 L120,65 L122,65 L122,66 L124,66 L124,67 L125,67 L125,68 L126,68 L126,69 L129,69 L129,70 L130,70 L130,71 L133,71 L133,72 L135,72 L135,73 L136,73 L136,74 L138,74 L138,75 L139,75 L139,76 L142,76 L142,77 L143,77 L143,78 L145,78 L145,79 L147,79 L147,80 L148,80 L148,81 L150,81 L150,82 L151,82 L151,83 L153,83 L153,84 L154,84 L154,86 L155,86 L155,94 L154,94 L154,96 L153,96 L153,97 L152,97 L152,98 L151,98 L151,99 L149,99 L149,100 L148,100 L148,101 L145,101 L145,102 L144,102 L144,103 L142,103 L142,104 L141,104 L141,105 L138,105 L138,106 L137,106 L137,107 L136,107 L136,108 L134,108 L134,109 L132,109 L132,110 L130,110 L130,111 L129,111 L129,112 L126,112 L126,113 L125,113 L125,114 L123,114 L123,115 L122,115 L122,116 L120,116 L120,117 L118,117 L118,118 L116,118 L116,119 L114,119 L114,120 L112,120 L112,121 L111,121 L111,122 L109,122 L109,123 L107,123 L107,124 L106,124 L106,125 L105,125 L105,127 L104,127 L104,161 L103,161 L103,162 L102,162 L102,163 L100,163 L100,164 L97,164 L97,163 L96,163 L96,162 L94,162 L94,161 L92,161 L92,160 L91,160 L91,159 L89,159 L89,158 L88,158 L88,157 L86,157 L86,156 L85,156 L85,155 L83,155 L83,154 L82,154 L82,153 L80,153 L80,152 L79,152 L79,151 L76,151 L76,149 L74,149 L74,148 L73,148 L73,147 L71,147 L71,146 L69,146 L69,145 L68,145 L68,144 L66,144 L66,143 L65,143 L65,142 L63,142 L63,141 L62,141 L62,140 L60,140 L60,139 L58,139 L58,138 L57,138 L57,137 L56,137 L56,136 L54,136 L54,135 L52,135 L52,134 L51,134 L51,133 L48,133 L48,132 L47,132 L47,131 L45,131 L45,129 L42,129 L42,128 L41,128 L41,127 L40,127 L40,126 L38,126 L38,125 L36,125 L36,124 L35,124 L35,123 L33,123 L33,122 L31,122 L31,121 L30,121 L30,120 L28,120 L28,119 L27,119 L27,118 L25,118 L25,117 L24,117 L24,116 L21,116 L21,114 L19,114 L19,113 L17,113 L17,112 L15,112 L15,111 L14,111 L14,110 L13,110 L13,109 L10,109 L10,108 L8,108 L8,107 L5,107 L5,106 L2,106 L2,107 L-1,107 L-1,108 L-3,108 L-3,109 L-6,109 L-6,110 L-7,110 L-7,111 L-8,111 L-8,112 L-10,112 L-10,113 L-12,113 L-12,114 L-13,114 L-13,115 L-14,115 L-14,116 L-17,116 L-17,117 L-18,117 L-18,118 L-20,118 L-20,119 L-21,119 L-21,120 L-23,120 L-23,121 L-24,121 L-24,122 L-26,122 L-26,123 L-28,123 L-28,124 L-29,124 L-29,125 L-31,125 L-31,126 L-32,126 L-32,127 L-34,127 L-34,128 L-35,128 L-35,129 L-38,129 L-38,131 L-40,131 L-40,132 L-41,132 L-41,133 L-43,133 L-43,134 L-45,134 L-45,135 L-46,135 L-46,136 L-49,136 L-49,138 L-51,138 L-51,139 L-52,139 L-52,140 L-55,140 L-55,142 L-57,142 L-57,143 L-58,143 L-58,144 L-60,144 L-60,145 L-62,145 L-62,146 L-63,146 L-63,147 L-65,147 L-65,148 L-66,148 L-66,149 L-68,149 L-68,150 L-69,150 L-69,151 L-71,151 L-71,152 L-73,152 L-73,153 L-75,153 L-75,154 L-76,154 L-76,155 L-77,155 L-77,156 L-79,156 L-79,157 L-81,157 L-81,158 L-82,158 L-82,159 L-83,159 L-83,160 L-85,160 L-85,161 L-86,161 L-86,162 L-88,162 L-88,163 L-90,163 L-90,164 L-93,164 L-93,163 L-94,163 L-94,162 L-95,162 L-95,161 L-96,161 L-96,127 L-97,127 L-97,126 L-98,126 L-98,124 L-100,124 L-100,123 L-102,123 L-102,122 L-104,122 L-104,121 L-105,121 L-105,120 L-107,120 L-107,119 L-109,119 L-109,118 L-111,118 L-111,117 L-112,117 L-112,116 L-115,116 L-115,115 L-116,115 L-116,114 L-118,114 L-118,113 L-119,113 L-119,112 L-121,112 L-121,142 L-119,142 L-119,143 L-118,143 L-118,144 L-117,144 L-117,145 L-115,145 L-115,147 L-114,147 L-114,149 L-113,149 L-113,150 L-112,150 L-112,163 L-113,163 L-113,164 L-114,164 L-114,166 L-115,166 L-115,168 L-117,168 L-117,169 L-118,169 L-118,171 L-120,171 L-120,172 L-125,172 L-125,173 L-130,173 L-130,172 L-134,172 L-134,171 L-136,171 L-136,170 L-137,170 L-137,169 L-138,169 L-138,168 L-140,168 L-140,167 L-141,167 L-141,164 L-142,164 L-142,163 L-143,163 L-143,158 L-144,158 L-144,155 L-143,155 L-143,150 L-142,150 L-142,148 L-141,148 L-141,146 L-140,146 L-140,145 L-139,145 L-139,144 L-138,144 L-138,143 L-136,143 L-136,142 L-134,142 L-134,141 L-133,141 L-133,105 L-134,105 L-134,104 L-135,104 L-135,103 L-137,103 L-137,102 L-138,102 L-138,101 L-141,101 L-141,100 L-142,100 L-142,99 L-144,99 L-144,97 L-146,97 L-146,95 L-147,95 L-147,92 L-148,92 L-148,88 L-147,88 L-147,85 L-146,85 L-146,84 L-145,84 L-145,83 L-144,83 L-144,82 L-142,82 L-142,81 L-141,81 L-141,80 L-139,80 L-139,79 L-137,79 L-137,78 L-136,78 L-136,77 L-135,77 L-135,76 L-132,76 L-132,75 L-131,75 L-131,74 L-129,74 L-129,73 L-128,73 L-128,72 L-126,72 L-126,71 L-123,71 L-123,70 L-122,70 L-122,69 L-119,69 L-119,68 L-118,68 L-118,67 L-117,67 L-117,66 L-115,66 L-115,65 L-113,65 L-113,64 L-112,64 L-112,63 L-109,63 L-109,61 L-106,61 L-106,60 L-105,60 L-105,59 L-103,59 L-103,58 L-100,58 L-100,57 L-99,57 L-99,56 L-97,56 L-97,55 L-95,55 L-95,54 L-94,54 L-94,53 L-92,53 L-92,52 L-91,52 L-91,51 L-89,51 L-89,50 L-87,50 L-87,49 L-86,49 L-86,48 L-83,48 L-83,47 L-82,47 L-82,46 L-80,46 L-80,45 L-78,45 L-78,44 L-77,44 L-77,43 L-74,43 L-74,41 L-70,41 L-70,39 L-68,39 L-68,38 L-66,38 L-66,37 L-64,37 L-64,36 L-63,36 L-63,35 L-61,35 L-61,34 L-59,34 L-59,33 L-57,33 L-57,32 L-55,32 L-55,31 L-54,31 L-54,30 L-52,30 L-52,29 L-50,29 L-50,28 L-48,28 L-48,27 L-46,27 L-46,26 L-45,26 L-45,25 L-44,25 L-44,24 L-42,24 L-42,23 L-40,23 L-40,22 L-39,22 L-39,21 L-37,21 L-37,20 L-34,20 L-34,19 L-32,19 L-32,18 L-31,18 L-31,17 L-29,17 L-29,16 L-27,16 L-27,15 L-25,15 L-25,13 L-22,13 L-22,12 L-21,12 L-21,11 L-18,11 L-18,9 L-15,9 L-15,8 L-14,8 L-14,7 L-12,7 L-12,6 L-9,6 L-9,5 L-8,5 L-8,4 L-7,4 L-7,3 L-5,3 L-5,2 L-2,2 L-2,1 L0,1 Z " fill="#05324A" transform="translate(246,44)"/>
<path d="M0,0 L3,0 L3,1 L6,1 L6,2 L8,2 L8,3 L9,3 L9,4 L11,4 L11,5 L12,5 L12,6 L14,6 L14,7 L16,7 L16,8 L17,8 L17,9 L19,9 L19,10 L21,10 L21,11 L22,11 L22,12 L23,12 L23,13 L26,13 L26,14 L27,14 L27,15 L28,15 L28,16 L30,16 L30,17 L32,17 L32,18 L33,18 L33,19 L35,19 L35,20 L36,20 L36,21 L38,21 L38,22 L39,22 L39,23 L41,23 L41,24 L43,24 L43,25 L44,25 L44,26 L46,26 L46,27 L47,27 L47,28 L49,28 L49,29 L50,29 L50,30 L52,30 L52,31 L53,31 L53,32 L55,32 L55,34 L58,34 L58,35 L60,35 L60,36 L61,36 L61,37 L63,37 L63,38 L64,38 L64,39 L66,39 L66,40 L67,40 L67,41 L69,41 L69,42 L70,42 L70,43 L72,43 L72,44 L73,44 L73,45 L75,45 L75,46 L76,46 L76,47 L79,47 L79,48 L80,48 L80,49 L81,49 L81,50 L83,50 L83,51 L84,51 L84,52 L86,52 L86,53 L87,53 L87,54 L90,54 L90,56 L92,56 L92,57 L93,57 L93,58 L96,58 L96,59 L97,59 L97,60 L98,60 L98,61 L100,61 L100,62 L101,62 L101,63 L103,63 L103,64 L104,64 L104,65 L107,65 L107,66 L108,66 L108,67 L109,67 L109,68 L110,68 L110,69 L111,69 L111,71 L112,71 L112,76 L111,76 L111,77 L110,77 L110,79 L107,79 L107,80 L96,80 L96,157 L95,157 L95,159 L94,159 L94,160 L93,160 L93,161 L92,161 L92,162 L90,162 L90,163 L-87,163 L-87,162 L-89,162 L-89,161 L-90,161 L-90,160 L-91,160 L-91,158 L-92,158 L-92,157 L-93,157 L-93,80 L-105,80 L-105,79 L-107,79 L-107,77 L-109,77 L-109,70 L-108,70 L-108,69 L-107,69 L-107,67 L-105,67 L-105,66 L-104,66 L-104,65 L-101,65 L-101,64 L-100,64 L-100,63 L-99,63 L-99,62 L-97,62 L-97,61 L-95,61 L-95,60 L-94,60 L-94,59 L-93,59 L-93,58 L-90,58 L-90,57 L-89,57 L-89,56 L-87,56 L-87,55 L-86,55 L-86,54 L-84,54 L-84,53 L-83,53 L-83,52 L-81,52 L-81,51 L-80,51 L-80,50 L-78,50 L-78,49 L-77,49 L-77,48 L-75,48 L-75,47 L-73,47 L-73,46 L-72,46 L-72,45 L-70,45 L-70,44 L-69,44 L-69,43 L-67,43 L-67,42 L-66,42 L-66,41 L-64,41 L-64,40 L-62,40 L-62,39 L-61,39 L-61,38 L-60,38 L-60,37 L-57,37 L-57,36 L-56,36 L-56,35 L-55,35 L-55,34 L-52,34 L-52,32 L-50,32 L-50,31 L-49,31 L-49,30 L-46,30 L-46,28 L-44,28 L-44,27 L-42,27 L-42,26 L-41,26 L-41,25 L-39,25 L-39,24 L-38,24 L-38,23 L-36,23 L-36,22 L-34,22 L-34,21 L-33,21 L-33,20 L-32,20 L-32,19 L-30,19 L-30,18 L-28,18 L-28,17 L-26,17 L-26,16 L-25,16 L-25,15 L-24,15 L-24,14 L-23,14 L-23,13 L-20,13 L-20,12 L-19,12 L-19,11 L-17,11 L-17,10 L-16,10 L-16,9 L-14,9 L-14,8 L-13,8 L-13,7 L-11,7 L-11,6 L-9,6 L-9,5 L-8,5 L-8,4 L-6,4 L-6,3 L-5,3 L-5,2 L-3,2 L-3,1 L0,1 Z M0,37 L0,38 L-6,38 L-6,39 L-7,39 L-7,40 L-9,40 L-9,41 L-10,41 L-10,42 L-12,42 L-12,44 L-13,44 L-13,45 L-14,45 L-14,46 L-15,46 L-15,48 L-16,48 L-16,51 L-17,51 L-17,63 L-16,63 L-16,65 L-15,65 L-15,67 L-14,67 L-14,69 L-12,69 L-12,71 L-10,71 L-10,72 L-9,72 L-9,73 L-7,73 L-7,74 L-5,74 L-5,75 L-2,75 L-2,76 L5,76 L5,75 L8,75 L8,74 L11,74 L11,73 L12,73 L12,72 L14,72 L14,71 L15,71 L15,69 L17,69 L17,67 L18,67 L18,66 L19,66 L19,63 L20,63 L20,60 L21,60 L21,53 L20,53 L20,50 L19,50 L19,47 L18,47 L18,46 L17,46 L17,44 L15,44 L15,42 L13,42 L13,41 L12,41 L12,40 L10,40 L10,39 L9,39 L9,38 L3,38 L3,37 Z M-56,60 L-56,61 L-59,61 L-59,62 L-62,62 L-62,63 L-63,63 L-63,64 L-64,64 L-64,65 L-65,65 L-65,66 L-66,66 L-66,68 L-67,68 L-67,69 L-68,69 L-68,73 L-69,73 L-69,78 L-68,78 L-68,82 L-67,82 L-67,84 L-66,84 L-66,85 L-65,85 L-65,86 L-64,86 L-64,87 L-62,87 L-62,88 L-61,88 L-61,89 L-58,89 L-58,90 L-55,90 L-55,91 L-52,91 L-52,90 L-49,90 L-49,89 L-46,89 L-46,88 L-44,88 L-44,86 L-42,86 L-42,85 L-41,85 L-41,82 L-40,82 L-40,81 L-39,81 L-39,78 L-38,78 L-38,73 L-39,73 L-39,70 L-40,70 L-40,69 L-41,69 L-41,66 L-43,66 L-43,64 L-44,64 L-44,63 L-46,63 L-46,62 L-48,62 L-48,61 L-51,61 L-51,60 Z M54,60 L54,61 L51,61 L51,62 L49,62 L49,63 L47,63 L47,64 L46,64 L46,66 L44,66 L44,69 L43,69 L43,70 L42,70 L42,75 L41,75 L41,77 L42,77 L42,81 L43,81 L43,82 L44,82 L44,85 L45,85 L45,86 L47,86 L47,88 L49,88 L49,89 L52,89 L52,90 L55,90 L55,91 L58,91 L58,90 L61,90 L61,89 L64,89 L64,88 L66,88 L66,87 L67,87 L67,86 L68,86 L68,85 L69,85 L69,84 L70,84 L70,83 L71,83 L71,79 L72,79 L72,72 L71,72 L71,68 L70,68 L70,67 L69,67 L69,66 L68,66 L68,65 L67,65 L67,64 L66,64 L66,63 L65,63 L65,62 L62,62 L62,61 L59,61 L59,60 Z M1,85 L1,86 L-1,86 L-1,87 L-3,87 L-3,88 L-5,88 L-5,90 L-6,90 L-6,91 L-8,91 L-8,92 L-9,92 L-9,93 L-10,93 L-10,94 L-12,94 L-12,96 L-14,96 L-14,97 L-15,97 L-15,98 L-17,98 L-17,99 L-19,99 L-19,101 L-21,101 L-21,103 L-22,103 L-22,149 L-21,149 L-21,150 L-7,150 L-7,134 L-6,134 L-6,132 L-5,132 L-5,131 L8,131 L8,132 L9,132 L9,133 L10,133 L10,150 L24,150 L24,149 L25,149 L25,102 L24,102 L24,101 L22,101 L22,99 L20,99 L20,98 L18,98 L18,97 L17,97 L17,96 L15,96 L15,94 L13,94 L13,93 L12,93 L12,92 L11,92 L11,91 L9,91 L9,90 L8,90 L8,88 L6,88 L6,87 L5,87 L5,86 L2,86 L2,85 Z M-55,100 L-55,101 L-58,101 L-58,102 L-59,102 L-59,103 L-60,103 L-60,104 L-61,104 L-61,105 L-63,105 L-63,106 L-64,106 L-64,107 L-66,107 L-66,108 L-67,108 L-67,109 L-68,109 L-68,110 L-69,110 L-69,111 L-71,111 L-71,112 L-72,112 L-72,113 L-73,113 L-73,149 L-72,149 L-72,150 L-35,150 L-35,112 L-37,112 L-37,111 L-38,111 L-38,110 L-39,110 L-39,109 L-41,109 L-41,107 L-43,107 L-43,106 L-44,106 L-44,105 L-46,105 L-46,104 L-47,104 L-47,103 L-48,103 L-48,102 L-49,102 L-49,101 L-52,101 L-52,100 Z M55,100 L55,101 L53,101 L53,102 L51,102 L51,103 L50,103 L50,104 L49,104 L49,105 L47,105 L47,107 L45,107 L45,108 L44,108 L44,109 L42,109 L42,110 L41,110 L41,111 L40,111 L40,112 L38,112 L38,150 L75,150 L75,149 L76,149 L76,113 L75,113 L75,112 L74,112 L74,111 L72,111 L72,110 L71,110 L71,109 L70,109 L70,108 L69,108 L69,107 L67,107 L67,105 L64,105 L64,104 L63,104 L63,103 L62,103 L62,102 L61,102 L61,101 L58,101 L58,100 Z " fill="#E45B25" transform="translate(248,170)"/>
<path d="M0,0 L16,0 L16,2 L17,2 L17,4 L18,4 L18,6 L19,6 L19,8 L20,8 L20,11 L21,11 L21,13 L22,13 L22,16 L23,16 L23,18 L24,18 L24,20 L25,20 L25,22 L26,22 L26,26 L27,26 L27,28 L28,28 L28,30 L29,30 L29,33 L30,33 L30,36 L31,36 L31,37 L32,37 L32,39 L33,39 L33,40 L34,40 L34,37 L35,37 L35,35 L36,35 L36,32 L37,32 L37,30 L38,30 L38,28 L39,28 L39,26 L40,26 L40,23 L41,23 L41,20 L42,20 L42,18 L43,18 L43,16 L44,16 L44,14 L45,14 L45,11 L46,11 L46,9 L47,9 L47,6 L48,6 L48,5 L49,5 L49,1 L50,1 L50,0 L66,0 L66,4 L67,4 L67,12 L68,12 L68,34 L69,34 L69,42 L70,42 L70,61 L71,61 L71,66 L56,66 L56,53 L55,53 L55,43 L54,43 L54,27 L53,27 L53,28 L52,28 L52,30 L51,30 L51,33 L50,33 L50,35 L49,35 L49,37 L48,37 L48,39 L47,39 L47,42 L46,42 L46,45 L45,45 L45,46 L44,46 L44,49 L43,49 L43,51 L42,51 L42,53 L41,53 L41,55 L40,55 L40,58 L39,58 L39,60 L28,60 L28,59 L27,59 L27,57 L26,57 L26,56 L25,56 L25,52 L24,52 L24,51 L23,51 L23,49 L22,49 L22,47 L21,47 L21,44 L20,44 L20,42 L19,42 L19,40 L18,40 L18,38 L17,38 L17,35 L16,35 L16,34 L15,34 L15,31 L14,31 L14,28 L13,28 L13,27 L12,27 L12,34 L11,34 L11,50 L10,50 L10,59 L9,59 L9,66 L-5,66 L-5,56 L-4,56 L-4,49 L-3,49 L-3,25 L-2,25 L-2,17 L-1,17 L-1,3 L0,3 Z M53,25 L53,26 L54,26 L54,25 Z " fill="#14394D" transform="translate(203,348)"/>
<path d="M0,0 L15,0 L15,45 L16,45 L16,47 L17,47 L17,50 L18,50 L18,51 L19,51 L19,52 L20,52 L20,53 L21,53 L21,54 L33,54 L33,53 L34,53 L34,52 L35,52 L35,51 L36,51 L36,50 L37,50 L37,49 L38,49 L38,46 L39,46 L39,43 L40,43 L40,0 L54,0 L54,50 L53,50 L53,52 L52,52 L52,56 L51,56 L51,57 L50,57 L50,59 L48,59 L48,61 L47,61 L47,62 L45,62 L45,63 L44,63 L44,64 L42,64 L42,65 L41,65 L41,66 L36,66 L36,67 L34,67 L34,68 L20,68 L20,67 L18,67 L18,66 L13,66 L13,65 L12,65 L12,64 L10,64 L10,63 L9,63 L9,62 L7,62 L7,61 L6,61 L6,59 L5,59 L5,58 L4,58 L4,57 L3,57 L3,54 L2,54 L2,51 L1,51 L1,46 L0,46 Z " fill="#153A4C" transform="translate(69,348)"/>
<path d="M0,0 L13,0 L13,1 L15,1 L15,2 L19,2 L19,3 L20,3 L20,4 L21,4 L21,5 L22,5 L22,6 L23,6 L23,7 L24,7 L24,9 L25,9 L25,12 L26,12 L26,14 L27,14 L27,49 L13,49 L13,46 L12,46 L12,47 L11,47 L11,48 L10,48 L10,49 L6,49 L6,50 L4,50 L4,51 L-5,51 L-5,50 L-7,50 L-7,49 L-11,49 L-11,47 L-13,47 L-13,45 L-14,45 L-14,44 L-15,44 L-15,42 L-16,42 L-16,41 L-17,41 L-17,31 L-16,31 L-16,30 L-15,30 L-15,28 L-14,28 L-14,27 L-13,27 L-13,25 L-12,25 L-12,24 L-10,24 L-10,23 L-9,23 L-9,22 L-6,22 L-6,21 L-5,21 L-5,20 L12,20 L12,19 L13,19 L13,18 L12,18 L12,16 L11,16 L11,14 L9,14 L9,13 L7,13 L7,12 L-1,12 L-1,13 L-4,13 L-4,14 L-7,14 L-7,15 L-8,15 L-8,16 L-10,16 L-10,14 L-11,14 L-11,13 L-12,13 L-12,11 L-13,11 L-13,7 L-14,7 L-14,5 L-13,5 L-13,4 L-11,4 L-11,3 L-9,3 L-9,2 L-4,2 L-4,1 L0,1 Z M2,29 L2,30 L0,30 L0,31 L-1,31 L-1,32 L-2,32 L-2,33 L-3,33 L-3,35 L-2,35 L-2,37 L-1,37 L-1,39 L2,39 L2,40 L4,40 L4,39 L7,39 L7,38 L9,38 L9,37 L11,37 L11,35 L12,35 L12,34 L13,34 L13,29 Z " fill="#183B4D" transform="translate(293,365)"/>
<path d="M0,0 L12,0 L12,1 L14,1 L14,2 L17,2 L17,3 L18,3 L18,4 L20,4 L20,5 L21,5 L21,6 L22,6 L22,7 L23,7 L23,9 L24,9 L24,10 L25,10 L25,12 L26,12 L26,17 L27,17 L27,19 L28,19 L28,30 L-3,30 L-3,32 L-2,32 L-2,34 L-1,34 L-1,35 L0,35 L0,37 L3,37 L3,38 L5,38 L5,39 L11,39 L11,38 L13,38 L13,37 L16,37 L16,36 L17,36 L17,35 L18,35 L18,34 L21,34 L21,35 L22,35 L22,37 L23,37 L23,38 L24,38 L24,40 L25,40 L25,41 L26,41 L26,45 L25,45 L25,46 L23,46 L23,47 L21,47 L21,48 L20,48 L20,49 L15,49 L15,50 L13,50 L13,51 L1,51 L1,50 L0,50 L0,49 L-5,49 L-5,48 L-6,48 L-6,47 L-8,47 L-8,46 L-9,46 L-9,45 L-11,45 L-11,43 L-12,43 L-12,42 L-13,42 L-13,41 L-14,41 L-14,39 L-15,39 L-15,37 L-16,37 L-16,36 L-17,36 L-17,15 L-16,15 L-16,14 L-15,14 L-15,12 L-14,12 L-14,10 L-13,10 L-13,9 L-12,9 L-12,8 L-11,8 L-11,6 L-9,6 L-9,5 L-8,5 L-8,4 L-7,4 L-7,3 L-6,3 L-6,2 L-2,2 L-2,1 L0,1 Z M5,11 L5,12 L1,12 L1,13 L0,13 L0,14 L-1,14 L-1,15 L-2,15 L-2,17 L-3,17 L-3,20 L14,20 L14,16 L13,16 L13,14 L11,14 L11,13 L10,13 L10,12 L7,12 L7,11 Z " fill="#193D4F" transform="translate(371,365)"/>
<path d="M0,0 L10,0 L10,1 L11,1 L11,2 L14,2 L14,3 L15,3 L15,4 L17,4 L17,6 L18,6 L18,7 L19,7 L19,9 L20,9 L20,11 L21,11 L21,49 L8,49 L8,22 L7,22 L7,17 L6,17 L6,15 L5,15 L5,14 L3,14 L3,13 L1,13 L1,12 L-2,12 L-2,13 L-4,13 L-4,14 L-7,14 L-7,16 L-8,16 L-8,18 L-9,18 L-9,49 L-23,49 L-23,1 L-10,1 L-10,5 L-8,5 L-8,4 L-7,4 L-7,3 L-5,3 L-5,2 L-2,2 L-2,1 L0,1 Z " fill="#153A4D" transform="translate(152,365)"/>
<path d="M0,0 L13,0 L13,1 L15,1 L15,2 L19,2 L19,3 L20,3 L20,4 L22,4 L22,5 L23,5 L23,7 L22,7 L22,9 L21,9 L21,11 L20,11 L20,14 L19,14 L19,16 L17,16 L17,15 L16,15 L16,14 L13,14 L13,13 L12,13 L12,12 L8,12 L8,11 L4,11 L4,12 L2,12 L2,17 L5,17 L5,18 L6,18 L6,19 L10,19 L10,20 L14,20 L14,21 L15,21 L15,22 L17,22 L17,23 L19,23 L19,24 L20,24 L20,25 L21,25 L21,26 L22,26 L22,27 L23,27 L23,29 L24,29 L24,41 L23,41 L23,43 L22,43 L22,44 L21,44 L21,45 L20,45 L20,46 L19,46 L19,47 L18,47 L18,48 L16,48 L16,49 L13,49 L13,50 L10,50 L10,51 L-1,51 L-1,50 L-3,50 L-3,49 L-8,49 L-8,48 L-10,48 L-10,47 L-12,47 L-12,46 L-13,46 L-13,45 L-14,45 L-14,41 L-13,41 L-13,40 L-12,40 L-12,38 L-11,38 L-11,37 L-10,37 L-10,34 L-7,34 L-7,35 L-5,35 L-5,37 L-2,37 L-2,38 L0,38 L0,39 L6,39 L6,40 L7,40 L7,39 L10,39 L10,38 L11,38 L11,34 L10,34 L10,33 L9,33 L9,32 L5,32 L5,31 L1,31 L1,30 L-1,30 L-1,29 L-4,29 L-4,28 L-6,28 L-6,27 L-7,27 L-7,26 L-8,26 L-8,25 L-10,25 L-10,22 L-11,22 L-11,21 L-12,21 L-12,11 L-11,11 L-11,9 L-10,9 L-10,7 L-9,7 L-9,6 L-8,6 L-8,5 L-7,5 L-7,4 L-6,4 L-6,3 L-5,3 L-5,2 L-2,2 L-2,1 L0,1 Z " fill="#1D3F50" transform="translate(412,365)"/>
<path d="M0,0 L6,0 L6,14 L17,14 L17,25 L6,25 L6,48 L7,48 L7,50 L8,50 L8,51 L16,51 L16,53 L17,53 L17,58 L18,58 L18,60 L19,60 L19,62 L15,62 L15,63 L13,63 L13,64 L3,64 L3,63 L0,63 L0,62 L-4,62 L-4,60 L-5,60 L-5,59 L-6,59 L-6,58 L-7,58 L-7,55 L-8,55 L-8,25 L-16,25 L-16,14 L-8,14 L-8,2 L-4,2 L-4,1 L0,1 Z " fill="#14384A" transform="translate(336,352)"/>
<path d="M0,0 L14,0 L14,1 L15,1 L15,3 L14,3 L14,48 L0,48 Z " fill="#13384A" transform="translate(179,366)"/>
<path d="M0,0 L8,0 L8,1 L10,1 L10,2 L11,2 L11,4 L12,4 L12,5 L13,5 L13,11 L12,11 L12,12 L11,12 L11,14 L9,14 L9,15 L8,15 L8,16 L0,16 L0,15 L-1,15 L-1,14 L-2,14 L-2,13 L-3,13 L-3,12 L-4,12 L-4,4 L-3,4 L-3,2 L-2,2 L-2,1 L0,1 Z " fill="#294754" transform="translate(182,346)"/>
</svg>
